<svg xmlns="http://www.w3.org/2000/svg" xmlns:xlink="http://www.w3.org/1999/xlink" width="500" zoomAndPan="magnify" viewBox="0 0 375 374.999991" height="500" preserveAspectRatio="xMidYMid meet" version="1.0"><defs><clipPath id="0fa5816028"><path d="M 0 1.390625 L 375 1.390625 L 375 375 L 0 375 Z M 0 1.390625 " clip-rule="nonzero"/></clipPath></defs><path fill="#fadb41" d="M 190.371094 65.257812 C 156.292969 65.996094 117.859375 73.546875 82.886719 124.582031 C 44.480469 180.09375 68.714844 262.796875 102.453125 290.203125 L 111.957031 278.605469 C 87.738281 254.035156 58.015625 190.390625 95.53125 132.273438 C 122.511719 86.585938 191.585938 58.929688 245.5 89.292969 L 179.402344 177.386719 C 138.613281 148.117188 115.78125 153.367188 97.117188 178.378906 C 87.453125 195.65625 93.984375 215.082031 106.90625 226.53125 C 134.816406 245.535156 158.917969 230.609375 171.042969 208.757812 L 160.40625 200.574219 C 140.859375 229.9375 126.941406 223.472656 113.292969 215.386719 C 96.089844 194.960938 105.792969 172.121094 131.25 169.191406 C 142.878906 168.386719 157.910156 176.484375 188.503906 201.421875 L 205.511719 213.519531 C 233.808594 230.738281 239.0625 235.847656 253.242188 237.015625 C 253.242188 237.015625 261.554688 239.109375 273.179688 233.714844 C 278.644531 231.175781 286.324219 224.890625 290.59375 212.59375 C 298.890625 190.867188 288.992188 174.902344 286.082031 171.164062 C 270.476562 151.097656 248.796875 156.109375 244.953125 157.449219 C 241.726562 158.574219 243.03125 158 239.875 159.449219 C 239.789062 159.488281 236.21875 161.421875 233.722656 163.683594 C 230.683594 166.441406 231.667969 165.246094 227.4375 169.589844 C 218.652344 178.613281 216.027344 182.386719 216.027344 182.386719 L 224.960938 189.734375 C 237.714844 176.761719 249.683594 160.621094 268.453125 171.667969 C 285.523438 184.132812 284.824219 202.425781 277.144531 212.640625 C 269.789062 225.378906 261.8125 227.472656 249.710938 224.25 C 238.925781 221.378906 218.386719 204.207031 190.488281 184.957031 L 263.273438 84.050781 C 260.273438 82.191406 247.523438 76.851562 242.941406 74.945312 C 229.304688 69.273438 210.820312 64.8125 190.371094 65.257812 Z M 305.53125 217.785156 C 305.519531 217.84375 305.503906 217.898438 305.492188 217.953125 L 305.558594 217.914062 Z M 305.53125 217.785156 " fill-opacity="1" fill-rule="nonzero"/><g clip-path="url(#0fa5816028)"><path stroke-linecap="butt" transform="matrix(23.812498, 0, 0, 23.812498, -5.82902, -4.440136)" fill="none" stroke-linejoin="miter" d="M 15.483962 8.013071 C 15.483962 8.133805 15.48101 8.254376 15.475104 8.374947 C 15.469199 8.495682 15.46034 8.615925 15.448529 8.736168 C 15.436554 8.85641 15.421791 8.976161 15.404074 9.095584 C 15.386358 9.215006 15.365852 9.333937 15.34223 9.452375 C 15.318608 9.570813 15.292197 9.688596 15.262834 9.805722 C 15.23347 9.922848 15.201318 10.039153 15.166377 10.154639 C 15.131272 10.270289 15.093378 10.384954 15.052696 10.498635 C 15.012014 10.612316 14.968543 10.724849 14.922447 10.836398 C 14.876187 10.947946 14.827302 11.058346 14.775629 11.167434 C 14.723956 11.276686 14.669658 11.384462 14.612735 11.490925 C 14.555813 11.597388 14.49643 11.702539 14.434258 11.80605 C 14.37225 11.90956 14.307617 12.011594 14.240524 12.111988 C 14.173431 12.212382 14.104041 12.311135 14.032027 12.408084 C 13.960176 12.505033 13.885865 12.600177 13.809258 12.693517 C 13.73265 12.786857 13.653746 12.878228 13.572709 12.967795 C 13.491672 13.057198 13.408339 13.144633 13.323037 13.230098 C 13.237571 13.3154 13.150301 13.39857 13.060734 13.47977 C 12.971331 13.560807 12.87996 13.639711 12.78662 13.716319 C 12.69328 13.792927 12.597971 13.867074 12.501023 13.939088 C 12.404074 14.010938 12.305321 14.080492 12.204927 14.147585 C 12.104533 14.214679 12.002663 14.279311 11.898989 14.341319 C 11.795478 14.403327 11.690491 14.462874 11.584028 14.519797 C 11.477401 14.576719 11.369625 14.631017 11.260537 14.68269 C 11.151285 14.7342 11.041049 14.783248 10.9295 14.829344 C 10.817952 14.875604 10.705255 14.919075 10.591574 14.959757 C 10.477893 15.00044 10.363227 15.038333 10.247742 15.073274 C 10.132092 15.108379 10.015786 15.140532 9.89866 15.169895 C 9.781534 15.199259 9.663752 15.225669 9.545314 15.249291 C 9.426875 15.272749 9.307945 15.293419 9.188522 15.311135 C 9.0691 15.328852 8.949349 15.343616 8.829106 15.355427 C 8.709028 15.367238 8.588621 15.37626 8.46805 15.382166 C 8.347479 15.388071 8.226744 15.391024 8.106009 15.391024 C 7.985274 15.391024 7.864539 15.388071 7.743969 15.382166 C 7.623398 15.37626 7.502991 15.367238 7.382748 15.355427 C 7.262669 15.343616 7.142919 15.328852 7.023496 15.311135 C 6.903909 15.293419 6.784979 15.272749 6.666541 15.249291 C 6.548266 15.225669 6.430484 15.199259 6.313358 15.169895 C 6.196232 15.140532 6.079762 15.108379 5.964277 15.073274 C 5.848791 15.038333 5.734126 15.00044 5.620445 14.959757 C 5.506764 14.919075 5.394067 14.875604 5.282518 14.829344 C 5.17097 14.783248 5.060569 14.7342 4.951481 14.68269 C 4.842394 14.631017 4.734454 14.576719 4.627991 14.519797 C 4.521527 14.462874 4.416541 14.403327 4.31303 14.341319 C 4.209355 14.279311 4.107321 14.214679 4.006928 14.147585 C 3.906534 14.080492 3.807945 14.010938 3.710996 13.939088 C 3.613883 13.867074 3.518739 13.792927 3.425399 13.716319 C 3.332059 13.639711 3.240687 13.560807 3.151285 13.47977 C 3.061718 13.39857 2.974283 13.3154 2.888981 13.230098 C 2.803515 13.144633 2.720346 13.057198 2.639309 12.967795 C 2.558109 12.878228 2.479368 12.786857 2.402761 12.693517 C 2.326153 12.600177 2.251842 12.505033 2.179992 12.408084 C 2.107977 12.311135 2.038424 12.212382 1.971494 12.111988 C 1.904401 12.011594 1.839769 11.90956 1.777597 11.80605 C 1.715589 11.702539 1.656042 11.597388 1.599119 11.490925 C 1.542196 11.384462 1.488063 11.276686 1.436389 11.167434 C 1.384716 11.058346 1.335832 10.947946 1.289572 10.836398 C 1.243476 10.724849 1.200005 10.612316 1.159322 10.498635 C 1.11864 10.384954 1.080746 10.270289 1.045641 10.154639 C 1.0107 10.039153 0.978384 9.922848 0.949185 9.805722 C 0.919821 9.688596 0.893246 9.570813 0.869788 9.452375 C 0.846166 9.333937 0.825497 9.215006 0.80778 9.095584 C 0.790064 8.976161 0.7753 8.85641 0.763489 8.736168 C 0.751678 8.615925 0.74282 8.495682 0.736914 8.374947 C 0.731009 8.254376 0.728056 8.133805 0.728056 8.013071 C 0.728056 7.892172 0.731009 7.771601 0.736914 7.65103 C 0.74282 7.530459 0.751678 7.410052 0.763489 7.289809 C 0.7753 7.169731 0.790064 7.049816 0.80778 6.930393 C 0.825497 6.810971 0.846166 6.69204 0.869788 6.573602 C 0.893246 6.455164 0.919821 6.337381 0.949185 6.220255 C 0.978384 6.103129 1.0107 5.986824 1.045641 5.871338 C 1.080746 5.755689 1.11864 5.641187 1.159322 5.527506 C 1.200005 5.413661 1.243476 5.301128 1.289572 5.18958 C 1.335832 5.078031 1.384716 4.967631 1.436389 4.858543 C 1.488063 4.749291 1.542196 4.641515 1.599119 4.535052 C 1.656042 4.428589 1.715589 4.323438 1.777597 4.219927 C 1.839769 4.116417 1.904401 4.014383 1.971494 3.913989 C 2.038424 3.813595 2.107977 3.714842 2.179992 3.617893 C 2.251842 3.520944 2.326153 3.4258 2.402761 3.33246 C 2.479368 3.23912 2.558109 3.147749 2.639309 3.058182 C 2.720346 2.968779 2.803515 2.881344 2.888981 2.796043 C 2.974283 2.710577 3.061718 2.627407 3.151285 2.546207 C 3.240687 2.46517 3.332059 2.386266 3.425399 2.309658 C 3.518739 2.23305 3.613883 2.158903 3.710996 2.086889 C 3.807945 2.015039 3.906534 1.945485 4.006928 1.878392 C 4.107321 1.811298 4.209355 1.74683 4.31303 1.684658 C 4.416541 1.62265 4.521527 1.563103 4.627991 1.50618 C 4.734454 1.449258 4.842394 1.39496 4.951481 1.343287 C 5.060569 1.291777 5.17097 1.242893 5.282518 1.196633 C 5.394067 1.150373 5.506764 1.106902 5.620445 1.06622 C 5.734126 1.025537 5.848791 0.987808 5.964277 0.952703 C 6.079762 0.917598 6.196232 0.885445 6.313358 0.856082 C 6.430484 0.826718 6.548266 0.800308 6.666541 0.776686 C 6.784979 0.753228 6.903909 0.732558 7.023496 0.714842 C 7.142919 0.697125 7.262669 0.682361 7.382748 0.67055 C 7.502991 0.658739 7.623398 0.649881 7.743969 0.643812 C 7.864539 0.637906 7.985274 0.634953 8.106009 0.634953 C 8.226744 0.634953 8.347479 0.637906 8.46805 0.643812 C 8.588621 0.649881 8.709028 0.658739 8.829106 0.67055 C 8.949349 0.682361 9.0691 0.697125 9.188522 0.714842 C 9.307945 0.732558 9.426875 0.753228 9.545314 0.776686 C 9.663752 0.800308 9.781534 0.826718 9.89866 0.856082 C 10.015786 0.885445 10.132092 0.917598 10.247742 0.952703 C 10.363227 0.987808 10.477893 1.025537 10.591574 1.06622 C 10.705255 1.106902 10.817952 1.150373 10.9295 1.196633 C 11.041049 1.242893 11.151285 1.291777 11.260537 1.343287 C 11.369625 1.39496 11.477401 1.449258 11.584028 1.50618 C 11.690491 1.563103 11.795478 1.62265 11.898989 1.684658 C 12.002663 1.74683 12.104533 1.811298 12.204927 1.878392 C 12.305321 1.945485 12.404074 2.015039 12.501023 2.086889 C 12.597971 2.158903 12.69328 2.23305 12.78662 2.309658 C 12.87996 2.386266 12.971331 2.46517 13.060734 2.546207 C 13.150301 2.627407 13.237571 2.710577 13.323037 2.796043 C 13.408339 2.881344 13.491672 2.968779 13.572709 3.058182 C 13.653746 3.147749 13.73265 3.23912 13.809258 3.33246 C 13.885865 3.4258 13.960176 3.520944 14.032027 3.617893 C 14.104041 3.714842 14.173431 3.813595 14.240524 3.913989 C 14.307617 4.014383 14.37225 4.116417 14.434258 4.219927 C 14.49643 4.323438 14.555813 4.428589 14.612735 4.535052 C 14.669658 4.641515 14.723956 4.749291 14.775629 4.858543 C 14.827302 4.967631 14.876187 5.078031 14.922447 5.18958 C 14.968543 5.301128 15.012014 5.413661 15.052696 5.527506 C 15.093378 5.641187 15.131272 5.755689 15.166377 5.871338 C 15.201318 5.986824 15.23347 6.103129 15.262834 6.220255 C 15.292197 6.337381 15.318608 6.455164 15.34223 6.573602 C 15.365852 6.69204 15.386358 6.810971 15.404074 6.930393 C 15.421791 7.049816 15.436554 7.169731 15.448529 7.289809 C 15.46034 7.410052 15.469199 7.530459 15.475104 7.65103 C 15.48101 7.771601 15.483962 7.892172 15.483962 8.013071 Z M 15.483962 8.013071 " stroke="#fadb41" stroke-width="0.562" stroke-opacity="1" stroke-miterlimit="4"/></g></svg>